<svg width="357" height="105" viewBox="0 0 357 105" fill="none" xmlns="http://www.w3.org/2000/svg">
<g filter="url(#filter0_d_2_4)">
<path d="M5.43182 95H4.43182V96H5.43182V95ZM5.43182 86.8182L4.60101 86.2616L4.43182 86.5142V86.8182H5.43182ZM55.6136 11.9091L56.4444 12.4656L57.4872 10.9091H55.6136V11.9091ZM4.88636 11.9091H3.88636V12.9091H4.88636V11.9091ZM4.88636 1.90909V0.909088H3.88636V1.90909H4.88636ZM69.0682 1.90909H70.0682V0.909088H69.0682V1.90909ZM69.0682 10.0909L69.899 10.6475L70.0682 10.3949V10.0909H69.0682ZM18.8864 85L18.0556 84.4434L17.0128 86H18.8864V85ZM69.6136 85H70.6136V84H69.6136V85ZM69.6136 95V96H70.6136V95H69.6136ZM6.43182 95V86.8182H4.43182V95H6.43182ZM6.26263 87.3747L56.4444 12.4656L54.7828 11.3525L4.60101 86.2616L6.26263 87.3747ZM55.6136 10.9091H4.88636V12.9091H55.6136V10.9091ZM5.88636 11.9091V1.90909H3.88636V11.9091H5.88636ZM4.88636 2.90909H69.0682V0.909088H4.88636V2.90909ZM68.0682 1.90909V10.0909H70.0682V1.90909H68.0682ZM68.2374 9.53434L18.0556 84.4434L19.7172 85.5566L69.899 10.6475L68.2374 9.53434ZM18.8864 86H69.6136V84H18.8864V86ZM68.6136 85V95H70.6136V85H68.6136ZM69.6136 94H5.43182V96H69.6136V94ZM88.5227 95H87.5227V96H88.5227V95ZM88.5227 1.90909V0.909088H87.5227V1.90909H88.5227ZM144.705 1.90909H145.705V0.909088H144.705V1.90909ZM144.705 11.9091V12.9091H145.705V11.9091H144.705ZM99.7955 11.9091V10.9091H98.7955V11.9091H99.7955ZM99.7955 43.3636H98.7955V44.3636H99.7955V43.3636ZM141.795 43.3636H142.795V42.3636H141.795V43.3636ZM141.795 53.3636V54.3636H142.795V53.3636H141.795ZM99.7955 53.3636V52.3636H98.7955V53.3636H99.7955ZM99.7955 85H98.7955V86H99.7955V85ZM145.432 85H146.432V84H145.432V85ZM145.432 95V96H146.432V95H145.432ZM89.5227 95V1.90909H87.5227V95H89.5227ZM88.5227 2.90909H144.705V0.909088H88.5227V2.90909ZM143.705 1.90909V11.9091H145.705V1.90909H143.705ZM144.705 10.9091H99.7955V12.9091H144.705V10.9091ZM98.7955 11.9091V43.3636H100.795V11.9091H98.7955ZM99.7955 44.3636H141.795V42.3636H99.7955V44.3636ZM140.795 43.3636V53.3636H142.795V43.3636H140.795ZM141.795 52.3636H99.7955V54.3636H141.795V52.3636ZM98.7955 53.3636V85H100.795V53.3636H98.7955ZM99.7955 86H145.432V84H99.7955V86ZM144.432 85V95H146.432V85H144.432ZM145.432 94H88.5227V96H145.432V94ZM215.932 25.1818L214.939 25.2994L215.043 26.1818H215.932V25.1818ZM209.295 14.4545L208.747 15.2906L208.747 15.2906L209.295 14.4545ZM184.205 12.6364L183.808 11.7181L183.805 11.7196L184.205 12.6364ZM177.023 18.1364L176.219 17.5414L176.214 17.5482L177.023 18.1364ZM176.25 32.5L175.416 33.0514L175.421 33.0596L175.427 33.0677L176.25 32.5ZM180.886 36.9091L180.354 37.7556L180.364 37.7617L180.886 36.9091ZM186.795 39.7727L186.45 40.7114L186.463 40.7157L186.795 39.7727ZM192.477 41.5455L192.737 40.5798L192.732 40.5784L192.477 41.5455ZM201.932 44.0909L201.672 45.0565L201.678 45.0581L201.932 44.0909ZM210.023 46.7273L209.67 47.6628L209.673 47.664L210.023 46.7273ZM218.614 51.3182L218.034 52.1332L218.044 52.1404L218.614 51.3182ZM225.432 58.6818L226.291 58.1699L226.291 58.1699L225.432 58.6818ZM224.159 83.3636L223.32 82.8191L223.318 82.8235L224.159 83.3636ZM212.705 93.0455L212.275 92.1425L212.273 92.1435L212.705 93.0455ZM177.159 93.4091L176.753 94.3231L176.756 94.3241L177.159 93.4091ZM165.705 84.4091L164.892 84.9915L164.895 84.9957L165.705 84.4091ZM161.023 71V70H159.949L160.025 71.0712L161.023 71ZM172.659 71L173.655 70.9141L173.577 70H172.659V71ZM176.205 79.7273L175.459 80.3941L175.469 80.4043L176.205 79.7273ZM184.114 84.8182L183.781 85.7614L183.792 85.7651L184.114 84.8182ZM206.068 84.3636L206.445 85.2899L206.452 85.287L206.068 84.3636ZM214.205 78.4545L214.987 79.0769L214.991 79.0724L214.205 78.4545ZM214.614 62L215.36 61.3349L215.36 61.3349L214.614 62ZM207.795 57.2727L207.4 58.1914L207.4 58.1914L207.795 57.2727ZM198.659 54.0909L198.384 55.0525L198.391 55.0544L198.659 54.0909ZM187.205 50.8182L186.928 51.7793L186.93 51.7797L187.205 50.8182ZM169.932 41.8636L169.257 42.6017L169.257 42.6017L169.932 41.8636ZM167.795 13L166.987 12.4111L166.986 12.4122L167.795 13ZM179.25 3.90909L179.66 4.82123L179.663 4.82004L179.25 3.90909ZM211.386 3.86363L210.968 4.77178L210.973 4.774L211.386 3.86363ZM222.477 12.5909L221.673 13.1846L221.676 13.1888L222.477 12.5909ZM226.841 25.1818V26.1818H227.874L227.84 25.1496L226.841 25.1818ZM216.925 25.0642C216.345 20.1647 213.97 16.326 209.844 13.6185L208.747 15.2906C212.379 17.674 214.428 20.9868 214.939 25.2994L216.925 25.0642ZM209.844 13.6185C205.77 10.945 200.812 9.63636 195.023 9.63636V11.6364C200.506 11.6364 205.063 12.8732 208.747 15.2906L209.844 13.6185ZM195.023 9.63636C190.795 9.63636 187.049 10.3202 183.808 11.7181L184.601 13.5546C187.542 12.2859 191.008 11.6364 195.023 11.6364V9.63636ZM183.805 11.7196C180.608 13.1123 178.065 15.0472 176.219 17.5414L177.826 18.7313C179.435 16.5588 181.68 14.8271 184.604 13.5531L183.805 11.7196ZM176.214 17.5482C174.389 20.0577 173.477 22.9165 173.477 26.0909H175.477C175.477 23.3259 176.263 20.8817 177.831 18.7245L176.214 17.5482ZM173.477 26.0909C173.477 28.7398 174.109 31.0751 175.416 33.0514L177.084 31.9486C176.027 30.3491 175.477 28.4117 175.477 26.0909H173.477ZM175.427 33.0677C176.719 34.9414 178.365 36.5044 180.354 37.7555L181.419 36.0626C179.65 34.9501 178.205 33.5737 177.073 31.9323L175.427 33.0677ZM180.364 37.7617C182.299 38.9475 184.328 39.9309 186.45 40.7113L187.141 38.8341C185.142 38.0994 183.232 37.1737 181.409 36.0565L180.364 37.7617ZM186.463 40.7157C188.544 41.4502 190.464 42.0497 192.223 42.5125L192.732 40.5784C191.036 40.1321 189.169 39.5498 187.128 38.8297L186.463 40.7157ZM192.217 42.5111L201.672 45.0565L202.192 43.1253L192.737 40.5798L192.217 42.5111ZM201.678 45.0581C204.061 45.6837 206.724 46.5508 209.67 47.6628L210.376 45.7917C207.382 44.6613 204.651 43.7708 202.186 43.1237L201.678 45.0581ZM209.673 47.664C212.588 48.7534 215.375 50.2419 218.034 52.1331L219.193 50.5032C216.398 48.5157 213.458 46.9435 210.373 45.7906L209.673 47.664ZM218.044 52.1404C220.679 53.9646 222.855 56.3115 224.573 59.1938L226.291 58.1699C224.433 55.0521 222.063 52.4899 219.183 50.496L218.044 52.1404ZM224.573 59.1938C226.248 62.0047 227.114 65.4993 227.114 69.7273H229.114C229.114 65.228 228.191 61.359 226.291 58.1699L224.573 59.1938ZM227.114 69.7273C227.114 74.5722 225.847 78.9271 223.32 82.8191L224.998 83.9082C227.744 79.6789 229.114 74.9429 229.114 69.7273H227.114ZM223.318 82.8235C220.827 86.7041 217.163 89.8161 212.275 92.1425L213.134 93.9484C218.306 91.487 222.279 88.1444 225.001 83.9038L223.318 82.8235ZM212.273 92.1435C207.441 94.457 201.521 95.6364 194.477 95.6364V97.6364C201.736 97.6364 207.968 96.4218 213.136 93.9474L212.273 92.1435ZM194.477 95.6364C187.916 95.6364 182.287 94.5774 177.563 92.4941L176.756 94.3241C181.789 96.5438 187.705 97.6364 194.477 97.6364V95.6364ZM177.565 92.495C172.858 90.4066 169.187 87.512 166.514 83.8224L164.895 84.9957C167.798 89.0032 171.763 92.1086 176.753 94.3231L177.565 92.495ZM166.517 83.8266C163.876 80.14 162.372 75.8504 162.02 70.9288L160.025 71.0712C160.401 76.3314 162.018 80.9812 164.892 84.9915L166.517 83.8266ZM161.023 72H172.659V70H161.023V72ZM171.663 71.0859C171.982 74.7848 173.234 77.9073 175.459 80.3941L176.95 79.0605C175.054 76.9411 173.943 74.2455 173.655 70.9141L171.663 71.0859ZM175.469 80.4043C177.68 82.8083 180.46 84.5909 183.781 85.7613L184.446 83.875C181.404 82.803 178.911 81.1917 176.94 79.0502L175.469 80.4043ZM183.792 85.7651C187.117 86.8942 190.681 87.4545 194.477 87.4545V85.4545C190.88 85.4545 187.535 84.924 184.435 83.8713L183.792 85.7651ZM194.477 87.4545C198.889 87.4545 202.883 86.7398 206.445 85.2898L205.691 83.4374C202.405 84.7753 198.672 85.4545 194.477 85.4545V87.4545ZM206.452 85.287C210.008 83.8078 212.867 81.7437 214.987 79.0769L213.422 77.8322C211.542 80.1957 208.976 82.0709 205.684 83.4403L206.452 85.287ZM214.991 79.0724C217.136 76.3418 218.205 73.1518 218.205 69.5455H216.205C216.205 72.727 215.273 75.4764 213.418 77.8367L214.991 79.0724ZM218.205 69.5455C218.205 66.2585 217.281 63.4911 215.36 61.3349L213.867 62.6651C215.401 64.3877 216.205 66.6506 216.205 69.5455H218.205ZM215.36 61.3349C213.52 59.2683 211.119 57.6136 208.191 56.3541L207.4 58.1914C210.108 59.3561 212.253 60.8529 213.867 62.6651L215.36 61.3349ZM208.191 56.3541C205.327 55.1224 202.238 54.0473 198.927 53.1274L198.391 55.0544C201.625 55.9527 204.628 56.9988 207.4 58.1914L208.191 56.3541ZM198.934 53.1294L187.479 49.8567L186.93 51.7797L198.384 55.0524L198.934 53.1294ZM187.481 49.8571C180.311 47.7959 174.705 44.8727 170.607 41.1256L169.257 42.6017C173.643 46.6121 179.552 49.6587 186.928 51.7792L187.481 49.8571ZM170.607 41.1256C166.592 37.4547 164.568 32.6569 164.568 26.6364H162.568C162.568 33.1612 164.787 38.5149 169.257 42.6017L170.607 41.1256ZM164.568 26.6364C164.568 21.616 165.921 17.2807 168.604 13.5878L166.986 12.4122C164.033 16.4769 162.568 21.2325 162.568 26.6364H164.568ZM168.604 13.5889C171.341 9.83221 175.017 6.90772 179.66 4.82123L178.84 2.99695C173.908 5.21348 169.947 8.34961 166.987 12.4111L168.604 13.5889ZM179.663 4.82004C184.336 2.70374 189.572 1.63636 195.386 1.63636V-0.36364C189.322 -0.36364 183.8 0.750798 178.837 2.99813L179.663 4.82004ZM195.386 1.63636C201.266 1.63636 206.453 2.69009 210.968 4.77176L211.805 2.9555C206.987 0.73414 201.507 -0.36364 195.386 -0.36364V1.63636ZM210.973 4.774C215.502 6.83301 219.058 9.64008 221.673 13.1846L223.282 11.9973C220.442 8.14778 216.604 5.13668 211.8 2.95327L210.973 4.774ZM221.676 13.1888C224.309 16.7186 225.696 20.7173 225.841 25.2141L227.84 25.1496C227.682 20.2524 226.161 15.8571 223.279 11.993L221.676 13.1888ZM226.841 24.1818H215.932V26.1818H226.841V24.1818ZM257.92 1.90909H258.92V0.909088H257.92V1.90909ZM257.92 95V96H258.92V95H257.92ZM246.648 95H245.648V96H246.648V95ZM246.648 1.90909V0.909088H245.648V1.90909H246.648ZM256.92 1.90909V95H258.92V1.90909H256.92ZM257.92 94H246.648V96H257.92V94ZM247.648 95V1.90909H245.648V95H247.648ZM246.648 2.90909H257.92V0.909088H246.648V2.90909ZM284.341 95V96H285.047L285.283 95.3345L284.341 95ZM272.523 95L271.584 94.6553L271.09 96H272.523V95ZM306.705 1.90909V0.909088H306.006L305.766 1.5644L306.705 1.90909ZM318.341 1.90909L319.28 1.5644L319.039 0.909088H318.341V1.90909ZM352.523 95V96H353.955L353.461 94.6553L352.523 95ZM340.705 95L339.762 95.3345L339.998 96H340.705V95ZM312.886 16.6364L313.829 16.3018L313.593 15.6364H312.886V16.6364ZM312.159 16.6364V15.6364H311.453L311.217 16.3018L312.159 16.6364ZM288.705 58.6364V57.6364H287.705V58.6364H288.705ZM336.341 58.6364H337.341V57.6364H336.341V58.6364ZM336.341 68.6364V69.6364H337.341V68.6364H336.341ZM288.705 68.6364H287.705V69.6364H288.705V68.6364ZM284.341 94H272.523V96H284.341V94ZM273.461 95.3447L307.643 2.25377L305.766 1.5644L271.584 94.6553L273.461 95.3447ZM306.705 2.90909H318.341V0.909088H306.705V2.90909ZM317.402 2.25377L351.584 95.3447L353.461 94.6553L319.28 1.5644L317.402 2.25377ZM352.523 94H340.705V96H352.523V94ZM341.647 94.6655L313.829 16.3018L311.944 16.9709L339.762 95.3345L341.647 94.6655ZM312.886 15.6364H312.159V17.6364H312.886V15.6364ZM311.217 16.3018L283.399 94.6655L285.283 95.3345L313.101 16.9709L311.217 16.3018ZM288.705 59.6364H336.341V57.6364H288.705V59.6364ZM335.341 58.6364V68.6364H337.341V58.6364H335.341ZM336.341 67.6364H288.705V69.6364H336.341V67.6364ZM289.705 68.6364V58.6364H287.705V68.6364H289.705Z" fill="black"/>
</g>
<defs>
<filter id="filter0_d_2_4" x="0.886368" y="0.636364" width="355.636" height="104" filterUnits="userSpaceOnUse" color-interpolation-filters="sRGB">
<feFlood flood-opacity="0" result="BackgroundImageFix"/>
<feColorMatrix in="SourceAlpha" type="matrix" values="0 0 0 0 0 0 0 0 0 0 0 0 0 0 0 0 0 0 127 0" result="hardAlpha"/>
<feOffset dy="4"/>
<feGaussianBlur stdDeviation="2"/>
<feComposite in2="hardAlpha" operator="out"/>
<feColorMatrix type="matrix" values="0 0 0 0 0 0 0 0 0 0 0 0 0 0 0 0 0 0 0.25 0"/>
<feBlend mode="normal" in2="BackgroundImageFix" result="effect1_dropShadow_2_4"/>
<feBlend mode="normal" in="SourceGraphic" in2="effect1_dropShadow_2_4" result="shape"/>
</filter>
</defs>
</svg>
